<svg xmlns="http://www.w3.org/2000/svg" viewBox="-178 -167 1000 700"><path fill="#494368" d="M80 323c4 0 7 2 10 4 3 3 4 7 4 10v50H44c-4 0-8-1-11-4-2-3-4-6-4-10v-24h53v-12-1l-2-1H29v-12h51zm2 52v-14H41v12l1 1 2 1h38zm115-52h13l-24 64h-10l-21-47-21 47h-10l-25-64h13l17 43 19-43h13l20 43 16-43zm67 0c4 0 7 2 10 4 3 3 5 7 5 10v24h-54v12l1 1 2 1h50v12h-50c-4 0-7-1-10-4s-4-6-4-10v-36c0-4 1-7 4-10s6-4 10-4h36zm-39 26h42v-12l-1-1-2-1h-36l-2 1-1 1v12zm129-11v2h-12v-3-1l-2-1h-36l-2 1-1 2v9l1 2h38c4 0 7 2 10 4 3 3 4 7 4 10v10c0 4-1 7-4 10s-6 4-10 4h-36c-4 0-8-1-10-4-3-3-5-6-5-10v-3h12v3l1 2h38l2-1v-10-2l-2-1h-36c-4 0-8-1-10-4-3-3-5-6-5-10v-9c0-4 2-8 5-11 2-2 6-4 10-4h36c4 0 7 2 10 4 3 3 4 6 4 10zm26-15h36c4 0 7 2 10 4 3 3 4 7 4 10v36c0 4-1 7-4 10s-6 4-10 4h-36c-4 0-8-1-10-4-3-3-5-6-5-10v-36c0-4 2-7 5-10 2-2 6-4 10-4zm36 12h-36l-2 1-1 1v36l1 1 2 1h36l2-1v-37-1l-2-1zm108-12c4 0 7 2 10 4 2 3 4 7 4 10v50h-12v-50l-1-1-2-1h-25l-1 1-1 1v50h-12v-50l-1-1-1-1h-26l-1 1-1 1v50h-12v-64h82zm76 0c4 0 7 2 10 4 3 3 4 7 4 10v24h-53v12l1 1 2 1h50v12h-50c-4 0-8-1-10-4-3-3-5-6-5-10v-36c0-4 2-7 5-10 2-3 6-4 10-4h36zm-39 26h41v-12-1l-2-1h-36l-2 1-1 1v12z"/><path fill="#FC60A8" d="M614 91L464-47l-21 23L568 91H75L200-24l-21-23L29 91v91c0 41 40 74 88 74h93c48 0 88-33 88-74v-60h48v60c0 41 39 74 88 74h92c49 0 88-33 88-74V91z"/></svg>
